PathFileType	4	(X/Y/Z)	/Users/itak/Documents/Research/Walk-IL/dataset/trc/00013_00004.trc
DataRate	CameraRate	NumFrames	NumMarkers	Units	OrigDataRate	OrigDataStartFrame	OrigNumFrames
100.000000	100.000000	4	55	mm	100.000000	141	566
Frame#	Time	RPSI			LPSI			L3			STRN			T10			C7			CLAV			RBAK			LBAK			LSHO			LUPA			LAEL			LAOL			LWTS			LWPS			LFRA			LIFD			LHTS			RSHO			RUPA			RAEL			RAOL			RWTS			RWPS			RFRA			RIFD			RHTS			RHPS			RBHD			LFHD			RFHD			LBHD			LHIP			RHIP			RASI			LASI			LKNE			LTHI			LANK			LTIP			LTOE			LMT1			LMT5			LHEE			RKNE			RTHI			RANK			RTIP			RTOE			RMT1			RMT5			RHEE			LHPS			*53			*54			
		X1	Y1	Z1	X2	Y2	Z2	X3	Y3	Z3	X4	Y4	Z4	X5	Y5	Z5	X6	Y6	Z6	X7	Y7	Z7	X8	Y8	Z8	X9	Y9	Z9	X10	Y10	Z10	X11	Y11	Z11	X12	Y12	Z12	X13	Y13	Z13	X14	Y14	Z14	X15	Y15	Z15	X16	Y16	Z16	X17	Y17	Z17	X18	Y18	Z18	X19	Y19	Z19	X20	Y20	Z20	X21	Y21	Z21	X22	Y22	Z22	X23	Y23	Z23	X24	Y24	Z24	X25	Y25	Z25	X26	Y26	Z26	X27	Y27	Z27	X28	Y28	Z28	X29	Y29	Z29	X30	Y30	Z30	X31	Y31	Z31	X32	Y32	Z32	X33	Y33	Z33	X34	Y34	Z34	X35	Y35	Z35	X36	Y36	Z36	X37	Y37	Z37	X38	Y38	Z38	X39	Y39	Z39	X40	Y40	Z40	X41	Y41	Z41	X42	Y42	Z42	X43	Y43	Z43	X44	Y44	Z44	X45	Y45	Z45	X46	Y46	Z46	X47	Y47	Z47	X48	Y48	Z48	X49	Y49	Z49	X50	Y50	Z50	X51	Y51	Z51	X52	Y52	Z52	X53	Y53	Z53	X54	Y54	Z54	X55	Y55	Z55	

142	1.41	877.94580078125	1059.467895507812	-190.0277252197266	852.1008911132812	1059.966796875	-351.2959289550781	861.2767333984375	1124.167236328125	-274.5057373046875	1089.849975585938	1314.083251953125	-294.7228088378906	840.9229736328125	1268.295166015625	-270.981201171875	889.6316528320312	1535.146118164062	-286.4526062011719	1049.19921875	1441.04638671875	-295.1779174804688	846.1715698242188	1398.4560546875	-200.7481842041016	864.25	1493.6689453125	-383.0346374511719	961.6731567382812	1498.524658203125	-464.63623046875	923.608154296875	1374.723999023438	-539.3477172851562	916.9470825195312	1157.984985351562	-565.7127075195312	868.7005615234375	1144.537963867188	-472.7884216308594	1025.187133789062	914.1207275390625	-514.725830078125	946.6395263671875	892.110595703125	-551.1116333007812	935.0442504882812	1042.605346679688	-572.0623779296875	1068.772827148438	732.8246459960938	-497.1633911132812	1052.929809570312	822.3742065429688	-529.3350219726562	984.41748046875	1521.544799804688	-119.4722061157227	978.9370727539062	1449.990356445312	-45.37062835693359	945.6293334960938	1181.433715820312	-17.2445068359375	931.0645141601562	1153.091064453125	-112.181770324707	1070.81494140625	922.8280029296875	-62.64591217041016	1013.408996582031	908.5438232421875	7.114458560943604	960.641357421875	1105.835205078125	-3.774084329605103	1090.4072265625	735.4577026367188	-74.71195983886719	1105.44775390625	812.8563842773438	-50.97925186157227	1054.180297851562	808.982177734375	3.36297082901001	934.1112670898438	1707.088623046875	-218.2078552246094	1096.159545898438	1744.560791015625	-348.8971862792969	1101.161010742188	1748.546020507812	-250.4752349853516	918.0219116210938	1704.254272460938	-361.6539916992188	932.193603515625	965.14990234375	-473.5618591308594	1006.362426757812	949.4765014648438	-107.4107666015625	1094.534545898438	981.8088989257812	-196.1753234863281	1054.84033203125	1009.48583984375	-427.0471801757812	1050.611083984375	524.753173828125	-456.0599975585938	997.2521362304688	657.916748046875	-485.9757080078125	929.9259033203125	38.06071090698242	-467.7707824707031	962.6600341796875	289.500732421875	-478.1924743652344	1147.693481445312	39.85554885864258	-398.1487731933594	1088.032958984375	48.31647491455078	-383.6191101074219	1055.283569335938	33.3773307800293	-483.5916442871094	861.0797119140625	47.02163696289062	-415.7449340820312	1018.650573730469	513.7160034179688	-166.6566619873047	1029.338134765625	784.8185424804688	-123.4944152832031	933.7955932617188	33.56335067749023	-200.1083068847656	998.6961669921875	391.7354431152344	-167.6260223388672	1163.729248046875	30.40207862854004	-251.8197021484375	1098.624633789062	37.07748794555664	-278.653076171875	1083.689575195312	29.75515556335449	-181.8330535888672	875.6189575195312	35.55617904663086	-242.5080718994141	987.25	805.8453979492188	-551.84130859375	nan	nan	nan	nan	nan	nan	
143	1.42	875.2571411132812	1059.605224609375	-189.4686431884766	848.9055786132812	1060.12158203125	-350.6399536132812	858.383056640625	1124.353515625	-273.7887573242188	1087.503173828125	1313.939208984375	-294.7087097167969	838.51953125	1268.624877929688	-270.0406188964844	887.7907104492188	1535.386962890625	-285.50830078125	1047.118774414062	1440.969970703125	-294.9521179199219	844.32080078125	1398.769653320312	-199.6762237548828	861.978515625	1494.056762695312	-382.0317077636719	959.1075439453125	1498.675170898438	-464.0127563476562	920.4430541992188	1374.943359375	-538.5719604492188	913.1788940429688	1158.218139648438	-564.9277954101562	865.3526611328125	1144.834106445312	-471.7717895507812	1021.9296875	914.5881958007812	-514.2490844726562	943.2495727539062	892.3899536132812	-550.29736328125	931.3009643554688	1042.830810546875	-571.28515625	1065.920288085938	733.3510131835938	-496.8048706054688	1049.773681640625	822.9181518554688	-528.9593505859375	983.2447509765625	1521.504150390625	-118.9402923583984	977.9869384765625	1450.00830078125	-44.78624725341797	944.695068359375	1181.581298828125	-15.89257526397705	929.5194091796875	1153.038330078125	-110.6545867919922	1069.618896484375	922.9117431640625	-61.68276596069336	1012.717224121094	908.7218017578125	8.504745483398438	959.7943115234375	1105.98193359375	-2.38540506362915	1089.153686523438	735.5162963867188	-73.55634307861328	1104.370727539062	812.9639892578125	-50.06737518310547	1053.724243164062	809.2220458984375	4.793381214141846	932.3099365234375	1706.889282226562	-217.4496612548828	1094.081787109375	1744.776733398438	-348.38427734375	1099.21044921875	1748.715698242188	-249.9507598876953	915.9931030273438	1704.166870117188	-360.9084777832031	928.853271484375	965.3707275390625	-473.2655029296875	1003.824340820312	949.4485473632812	-107.294677734375	1091.747924804688	981.704345703125	-196.3720397949219	1051.46484375	1009.695495605469	-427.1473999023438	1048.548461914062	525.0934448242188	-456.3648986816406	994.78955078125	658.3566284179688	-485.80078125	923.5430297851562	38.95754241943359	-468.0653381347656	958.565673828125	290.157470703125	-478.519287109375	1141.235961914062	41.10454177856445	-398.4009094238281	1081.561401367188	49.33113098144531	-383.7969360351562	1048.916381835938	34.49682998657227	-483.8379516601562	854.6981811523438	47.87062454223633	-416.0506591796875	1016.996398925781	513.7811889648438	-166.6123504638672	1027.010009765625	784.8455810546875	-123.4500427246094	933.7996826171875	33.50611877441406	-200.0391387939453	997.4197387695312	391.8648071289062	-167.4164428710938	1163.7138671875	30.40607261657715	-251.8238220214844	1098.609130859375	37.13154602050781	-278.5999450683594	1083.675537109375	29.72543716430664	-181.7719421386719	875.6376342773438	35.4664192199707	-242.4436798095703	983.9989013671875	806.2413940429688	-551.1768798828125	nan	nan	nan	nan	nan	nan	
144	1.43	872.5819091796875	1059.734985351562	-188.9768371582031	845.705078125	1060.275146484375	-350.0715637207031	855.43798828125	1124.526123046875	-273.1801147460938	1085.0546875	1313.807250976562	-294.7312316894531	836.0172729492188	1268.906005859375	-269.2256469726562	885.7975463867188	1535.592407226562	-284.6582641601562	1044.905151367188	1440.90185546875	-294.7820739746094	842.3448486328125	1399.032348632812	-198.7300872802734	859.5758056640625	1494.404174804688	-381.123779296875	956.44140625	1498.831298828125	-463.4615173339844	917.210693359375	1375.161865234375	-537.8748168945312	909.403076171875	1158.443237304688	-564.2040405273438	861.95556640625	1145.1181640625	-470.8363647460938	1018.569396972656	914.996337890625	-513.8002319335938	939.7804565429688	892.6653442382812	-549.5491943359375	927.5341796875	1043.055908203125	-570.567138671875	1062.901123046875	733.82470703125	-496.4767456054688	1046.49560546875	823.4061889648438	-528.6124267578125	981.8551025390625	1521.433837890625	-118.4747772216797	976.8203735351562	1449.983276367188	-44.27717590332031	943.6129150390625	1181.683837890625	-14.64242362976074	927.8877563476562	1152.939208984375	-109.2179946899414	1068.384887695312	922.9869995117188	-60.75187683105469	1011.973022460938	908.8800659179688	9.847018241882324	958.8314208984375	1106.095092773438	-1.083840131759644	1087.927490234375	735.5720825195312	-72.40676116943359	1103.2734375	813.0758056640625	-49.16643905639648	1053.15771484375	809.442138671875	6.151365756988525	930.39501953125	1706.69482421875	-216.7435455322266	1091.914306640625	1744.965942382812	-347.9126586914062	1097.159423828125	1748.842163085938	-249.4630584716797	913.8614501953125	1704.101196289062	-360.2038269042969	925.5687255859375	965.5477905273438	-473.0296936035156	1001.223327636719	949.4386596679688	-107.1864547729492	1088.928955078125	981.6279907226562	-196.5284423828125	1048.119140625	1009.836120605469	-427.2098388671875	1046.250244140625	525.34521484375	-456.6956481933594	992.2623901367188	658.737060546875	-485.5640563964844	916.1178588867188	40.02266693115234	-468.2724914550781	953.8552856445312	290.830078125	-478.7929077148438	1133.875854492188	42.05825424194336	-398.9525451660156	1074.224853515625	50.14076232910156	-384.1436157226562	1041.466064453125	35.5623664855957	-484.2270202636719	847.3944702148438	48.96792221069336	-416.1556396484375	1015.317626953125	513.8740844726562	-166.5309906005859	1024.591552734375	784.84619140625	-123.3281860351562	933.7944946289062	33.46411514282227	-199.9767303466797	996.1220092773438	391.9910583496094	-167.2202453613281	1163.6962890625	30.41150283813477	-251.8275146484375	1098.58447265625	37.19602584838867	-278.5399475097656	1083.660034179688	29.69370651245117	-181.70654296875	875.6665649414062	35.38238525390625	-242.3799591064453	980.6275634765625	806.5989379882812	-550.5591430664062	nan	nan	nan	nan	nan	nan	
145	1.44	869.9013061523438	1059.858520507812	-188.5513763427734	842.5279541015625	1060.432495117188	-349.5877990722656	852.4639282226562	1124.688720703125	-272.6777038574219	1082.507934570312	1313.69091796875	-294.7783813476562	833.4225463867188	1269.131469726562	-268.5326843261719	883.6458740234375	1535.760864257812	-283.9039306640625	1042.555541992188	1440.844116210938	-294.6549682617188	840.239013671875	1399.241455078125	-197.9114990234375	857.0385131835938	1494.707153320312	-380.3139038085938	953.6744384765625	1498.996215820312	-462.9797058105469	913.9136352539062	1375.384643554688	-537.2564697265625	905.6221313476562	1158.669921875	-563.5445556640625	858.506591796875	1145.403564453125	-469.9839477539062	1015.106079101562	915.351806640625	-513.3842163085938	936.2290649414062	892.9395141601562	-548.8668212890625	923.7509765625	1043.292114257812	-569.9134521484375	1059.713012695312	734.2540893554688	-496.1751098632812	1043.093139648438	823.8382568359375	-528.2927856445312	980.2355346679688	1521.345336914062	-118.0763320922852	975.4208374023438	1449.928466796875	-43.84238433837891	942.3684692382812	1181.752075195312	-13.5080099105835	926.1665649414062	1152.805053710938	-107.8960342407227	1067.105102539062	923.0670776367188	-59.85638427734375	1011.158447265625	909.0325927734375	11.12975406646729	957.73291015625	1106.186645507812	0.1146889999508858	1086.72412109375	735.63818359375	-71.26981353759766	1102.148681640625	813.2058715820312	-48.27421188354492	1052.485107421875	809.6566162109375	7.440664291381836	928.359619140625	1706.520629882812	-216.0894775390625	1089.64892578125	1745.120239257812	-347.4776611328125	1095.003784179688	1748.91845703125	-249.0095977783203	911.6210327148438	1704.065795898438	-359.5408630371094	922.3253173828125	965.6851806640625	-472.8518371582031	998.5638427734375	949.4428100585938	-107.0832977294922	1086.080688476562	981.57568359375	-196.6374664306641	1044.807739257812	1009.905944824219	-427.2300109863281	1043.695068359375	525.50244140625	-457.0600891113281	989.6287231445312	659.0499877929688	-485.2974548339844	907.70556640625	41.24768447875977	-468.40185546875	948.5430908203125	291.5285949707031	-479.0314331054688	1125.651489257812	42.71046447753906	-399.7920532226562	1066.054443359375	50.74903869628906	-384.6642761230469	1032.975463867188	36.54683685302734	-484.7474365234375	839.2088012695312	50.33033752441406	-416.0718688964844	1013.620849609375	513.9887084960938	-166.412841796875	1022.096008300781	784.8326416015625	-123.1374588012695	933.78271484375	33.4339599609375	-199.9206695556641	994.810546875	392.10888671875	-167.0328674316406	1163.673950195312	30.42051315307617	-251.8307647705078	1098.548706054688	37.26779937744141	-278.4747619628906	1083.643798828125	29.66119575500488	-181.6384582519531	875.717041015625	35.29973602294922	-242.3168029785156	977.133056640625	806.9205322265625	-549.9845581054688	nan	nan	nan	nan	nan	nan	
